<svg width="184" height="42" viewBox="0 0 184 42" fill="none" xmlns="http://www.w3.org/2000/svg">
<path d="M54.456 11.54C56.528 11.54 58.3387 11.9413 59.888 12.744C61.456 13.528 62.66 14.6667 63.5 16.16C64.3587 17.6347 64.788 19.3613 64.788 21.34C64.788 23.3187 64.3587 25.036 63.5 26.492C62.66 27.948 61.456 29.068 59.888 29.852C58.3387 30.6173 56.528 31 54.456 31H48.1V11.54H54.456ZM54.456 28.396C56.7333 28.396 58.4787 27.78 59.692 26.548C60.9053 25.316 61.512 23.58 61.512 21.34C61.512 19.0813 60.9053 17.3173 59.692 16.048C58.4787 14.7787 56.7333 14.144 54.456 14.144H51.292V28.396H54.456ZM82.0916 22.908C82.0916 23.4867 82.0542 24.0093 81.9796 24.476H70.1916C70.2849 25.708 70.7422 26.6973 71.5636 27.444C72.3849 28.1907 73.3929 28.564 74.5876 28.564C76.3049 28.564 77.5182 27.8453 78.2276 26.408H81.6716C81.2049 27.8267 80.3556 28.9933 79.1236 29.908C77.9102 30.804 76.3982 31.252 74.5876 31.252C73.1129 31.252 71.7876 30.9253 70.6116 30.272C69.4542 29.6 68.5396 28.6667 67.8676 27.472C67.2142 26.2587 66.8876 24.8587 66.8876 23.272C66.8876 21.6853 67.2049 20.2947 67.8396 19.1C68.4929 17.8867 69.3982 16.9533 70.5556 16.3C71.7316 15.6467 73.0756 15.32 74.5876 15.32C76.0436 15.32 77.3409 15.6373 78.4796 16.272C79.6182 16.9067 80.5049 17.8027 81.1396 18.96C81.7742 20.0987 82.0916 21.4147 82.0916 22.908ZM78.7596 21.9C78.7409 20.724 78.3209 19.7813 77.4996 19.072C76.6782 18.3627 75.6609 18.008 74.4476 18.008C73.3462 18.008 72.4036 18.3627 71.6196 19.072C70.8356 19.7627 70.3689 20.7053 70.2196 21.9H78.7596ZM91.1968 28.144L95.5648 15.572H98.9528L93.0728 31H89.2648L83.4128 15.572H86.8288L91.1968 28.144ZM100.302 23.272C100.302 21.6853 100.619 20.2947 101.254 19.1C101.907 17.8867 102.803 16.9533 103.942 16.3C105.08 15.6467 106.387 15.32 107.862 15.32C109.728 15.32 111.268 15.768 112.482 16.664C113.714 17.5413 114.544 18.8013 114.974 20.444H111.53C111.25 19.6787 110.802 19.0813 110.186 18.652C109.57 18.2227 108.795 18.008 107.862 18.008C106.555 18.008 105.51 18.4747 104.726 19.408C103.96 20.3227 103.578 21.6107 103.578 23.272C103.578 24.9333 103.96 26.2307 104.726 27.164C105.51 28.0973 106.555 28.564 107.862 28.564C109.71 28.564 110.932 27.752 111.53 26.128H114.974C114.526 27.696 113.686 28.9467 112.454 29.88C111.222 30.7947 109.691 31.252 107.862 31.252C106.387 31.252 105.08 30.9253 103.942 30.272C102.803 29.6 101.907 28.6667 101.254 27.472C100.619 26.2587 100.302 24.8587 100.302 23.272ZM117.091 23.216C117.091 21.6667 117.408 20.2947 118.043 19.1C118.696 17.9053 119.573 16.9813 120.675 16.328C121.795 15.656 123.027 15.32 124.371 15.32C125.584 15.32 126.639 15.5627 127.535 16.048C128.449 16.5147 129.177 17.1027 129.719 17.812V15.572H132.939V31H129.719V28.704C129.177 29.432 128.44 30.0387 127.507 30.524C126.573 31.0093 125.509 31.252 124.315 31.252C122.989 31.252 121.776 30.916 120.675 30.244C119.573 29.5533 118.696 28.6013 118.043 27.388C117.408 26.156 117.091 24.7653 117.091 23.216ZM129.719 23.272C129.719 22.208 129.495 21.284 129.047 20.5C128.617 19.716 128.048 19.1187 127.339 18.708C126.629 18.2973 125.864 18.092 125.043 18.092C124.221 18.092 123.456 18.2973 122.747 18.708C122.037 19.1 121.459 19.688 121.011 20.472C120.581 21.2373 120.367 22.152 120.367 23.216C120.367 24.28 120.581 25.2133 121.011 26.016C121.459 26.8187 122.037 27.4347 122.747 27.864C123.475 28.2747 124.24 28.48 125.043 28.48C125.864 28.48 126.629 28.2747 127.339 27.864C128.048 27.4533 128.617 26.856 129.047 26.072C129.495 25.2693 129.719 24.336 129.719 23.272ZM155.807 15.32C157.021 15.32 158.103 15.572 159.055 16.076C160.026 16.58 160.782 17.3267 161.323 18.316C161.883 19.3053 162.163 20.5 162.163 21.9V31H158.999V22.376C158.999 20.9947 158.654 19.94 157.963 19.212C157.273 18.4653 156.33 18.092 155.135 18.092C153.941 18.092 152.989 18.4653 152.279 19.212C151.589 19.94 151.243 20.9947 151.243 22.376V31H148.079V22.376C148.079 20.9947 147.734 19.94 147.043 19.212C146.353 18.4653 145.41 18.092 144.215 18.092C143.021 18.092 142.069 18.4653 141.359 19.212C140.669 19.94 140.323 20.9947 140.323 22.376V31H137.131V15.572H140.323V17.336C140.846 16.7013 141.509 16.2067 142.311 15.852C143.114 15.4973 143.973 15.32 144.887 15.32C146.119 15.32 147.221 15.5813 148.191 16.104C149.162 16.6267 149.909 17.3827 150.431 18.372C150.898 17.4387 151.626 16.7013 152.615 16.16C153.605 15.6 154.669 15.32 155.807 15.32ZM169.417 17.84C169.958 17.1307 170.696 16.5333 171.629 16.048C172.562 15.5627 173.617 15.32 174.793 15.32C176.137 15.32 177.36 15.656 178.461 16.328C179.581 16.9813 180.458 17.9053 181.093 19.1C181.728 20.2947 182.045 21.6667 182.045 23.216C182.045 24.7653 181.728 26.156 181.093 27.388C180.458 28.6013 179.581 29.5533 178.461 30.244C177.36 30.916 176.137 31.252 174.793 31.252C173.617 31.252 172.572 31.0187 171.657 30.552C170.742 30.0667 169.996 29.4693 169.417 28.76V38.336H166.225V15.572H169.417V17.84ZM178.797 23.216C178.797 22.152 178.573 21.2373 178.125 20.472C177.696 19.688 177.117 19.1 176.389 18.708C175.68 18.2973 174.914 18.092 174.093 18.092C173.29 18.092 172.525 18.2973 171.797 18.708C171.088 19.1187 170.509 19.716 170.061 20.5C169.632 21.284 169.417 22.208 169.417 23.272C169.417 24.336 169.632 25.2693 170.061 26.072C170.509 26.856 171.088 27.4533 171.797 27.864C172.525 28.2747 173.29 28.48 174.093 28.48C174.914 28.48 175.68 28.2747 176.389 27.864C177.117 27.4347 177.696 26.8187 178.125 26.016C178.573 25.2133 178.797 24.28 178.797 23.216Z" fill="#211B3D"/>
<g clip-path="url(#clip0_209_30)">
<path d="M31.48 9.87615L20.8974 3.77295C19.1103 2.74231 16.8898 2.74238 15.1026 3.77295L4.52004 9.87615C2.72946 10.9087 1.61719 12.8343 1.61719 14.9015V27.0984C1.61719 29.1656 2.72946 31.0913 4.51997 32.1238L15.1026 38.227C16.89 39.2578 19.1105 39.2575 20.8974 38.227L31.48 32.1238C33.2705 31.0913 34.3828 29.1656 34.3828 27.0984V14.9015C34.3828 12.8344 33.2705 10.9088 31.48 9.87615ZM31.5703 27.0984C31.5703 28.1632 30.9974 29.1551 30.075 29.687L19.4924 35.7902C18.5718 36.3212 17.4281 36.3212 16.5075 35.7902L5.92488 29.687C5.00259 29.1551 4.42969 28.1632 4.42969 27.0984V14.9015C4.42969 13.8368 5.00259 12.8449 5.92495 12.313L16.5075 6.20984C17.4282 5.67884 18.5722 5.67906 19.4925 6.20984L30.0751 12.313C30.9974 12.8449 31.5703 13.8367 31.5703 14.9015V27.0984Z" fill="#7839F3"/>
<path d="M16.6636 19.9263L11.4408 15.5062C10.848 15.0045 9.96054 15.0784 9.45886 15.6714C8.95718 16.2644 9.03115 17.1518 9.62403 17.6536L13.5783 21L9.62403 24.3464C9.03115 24.8481 8.95725 25.7356 9.45886 26.3286C9.96174 26.9229 10.8494 26.9942 11.4408 26.4937L16.6636 22.0736C17.3281 21.5113 17.3262 20.487 16.6636 19.9263Z" fill="#7839F3"/>
<path d="M25.4676 24.0135H19.1398C18.3632 24.0135 17.7336 24.6432 17.7336 25.42C17.7336 26.1968 18.3632 26.8265 19.1398 26.8265H25.4676C26.2442 26.8265 26.8739 26.1968 26.8739 25.42C26.8739 24.6432 26.2443 24.0135 25.4676 24.0135Z" fill="#7839F3"/>
</g>
<defs>
<clipPath id="clip0_209_30">
<rect width="36" height="36" fill="white" transform="translate(0 3)"/>
</clipPath>
</defs>
</svg>
